<?xml version="1.0" standalone="no"?>
<!DOCTYPE svg PUBLIC "-//W3C//DTD SVG 20010904//EN"
 "http://www.w3.org/TR/2001/REC-SVG-20010904/DTD/svg10.dtd">
<svg version="1.0" xmlns="http://www.w3.org/2000/svg"
 width="488.000000pt" height="488.000000pt" viewBox="0 0 488.000000 488.000000"
 preserveAspectRatio="xMidYMid meet">
<metadata>
Created by potrace 1.14, written by Peter Selinger 2001-2017
</metadata>
<g transform="translate(0.000000,488.000000) scale(0.100000,-0.100000)"
fill="#000000" stroke="none">
<path d="M2477 4788 c-76 -16 -161 -77 -192 -137 -30 -60 -74 -182 -80 -224
-6 -38 -3 -53 15 -81 23 -39 20 -56 -11 -56 -21 0 -55 -47 -66 -90 -3 -14 -14
-34 -24 -45 -10 -12 -20 -32 -22 -45 -3 -18 -28 -42 -92 -87 -49 -34 -93 -72
-97 -83 -7 -18 -13 -20 -37 -15 -22 5 -32 2 -43 -13 -7 -10 -26 -27 -43 -37
-52 -32 -154 -138 -160 -166 -5 -21 -18 -32 -57 -49 -28 -12 -67 -40 -87 -62
-34 -38 -139 -102 -171 -104 -8 -1 -28 -6 -43 -13 -16 -6 -30 -11 -33 -11 -3
0 -16 -8 -31 -17 -14 -10 -32 -18 -40 -19 -20 -3 -256 -119 -380 -187 -57 -30
-123 -63 -148 -72 -25 -10 -45 -21 -45 -25 0 -5 -24 -18 -54 -31 -30 -12 -56
-30 -59 -39 -2 -9 -15 -20 -28 -23 -50 -12 -168 -60 -275 -112 -65 -32 -119
-53 -132 -50 -45 8 -48 -45 -6 -101 13 -17 26 -43 30 -58 3 -14 14 -32 23 -39
16 -12 46 -54 66 -92 6 -11 20 -21 31 -23 12 -2 71 -68 154 -175 74 -95 168
-206 210 -247 87 -86 407 -312 825 -582 39 -25 129 -83 200 -130 130 -84 240
-154 273 -173 9 -6 94 -58 187 -116 147 -92 214 -133 343 -210 205 -123 577
-349 812 -494 162 -100 327 -198 365 -219 39 -21 84 -46 100 -57 161 -97 424
-131 563 -73 183 76 149 250 -68 356 -121 58 -134 64 -375 146 -370 127 -494
182 -747 328 -73 42 -153 88 -178 102 -130 72 -160 95 -148 109 10 12 9 17 -4
24 -14 8 -13 15 7 66 17 42 29 57 46 60 12 2 29 9 36 15 21 17 65 108 53 108
-6 0 -10 12 -8 27 3 25 8 29 46 34 50 6 54 10 92 80 51 93 59 115 66 181 5 58
15 375 16 526 0 34 3 62 7 62 3 0 17 10 31 23 24 21 54 82 88 177 8 25 23 59
33 75 72 121 110 209 114 263 2 37 -1 64 -10 78 -7 11 -13 42 -13 69 0 31 -9
64 -26 96 -14 27 -20 49 -15 49 6 0 -3 26 -20 57 -17 31 -31 62 -31 68 0 6
-14 40 -32 76 -21 43 -32 80 -32 111 -1 27 0 48 0 48 1 0 36 -40 78 -89 67
-78 84 -91 144 -116 64 -27 81 -34 165 -77 34 -17 66 -25 172 -42 50 -9 295
-115 380 -164 21 -13 65 -34 98 -47 86 -36 141 -70 168 -106 85 -112 119 -134
146 -92 14 20 14 30 5 57 -24 64 -20 68 56 62 37 -3 68 -5 70 -6 1 0 2 -13 2
-29 0 -33 31 -77 48 -67 6 3 13 20 17 37 7 29 8 30 26 13 10 -9 19 -23 19 -30
0 -7 11 -26 25 -41 24 -27 26 -27 39 -10 11 14 19 16 33 8 11 -5 25 -6 33 -1
11 7 12 16 1 51 -16 53 -147 187 -192 196 -16 3 -34 13 -39 23 -13 24 -71 50
-113 50 -19 0 -40 7 -48 16 -7 8 -35 27 -61 40 -27 14 -51 31 -54 39 -3 8 -22
17 -42 21 -21 4 -48 17 -61 30 -12 13 -44 33 -70 45 -25 11 -59 38 -76 60 -20
26 -36 37 -48 35 -18 -4 -158 76 -203 116 -11 10 -27 18 -35 18 -8 0 -15 10
-16 21 -3 30 -14 39 -72 59 -34 11 -54 13 -61 6 -7 -7 -19 -3 -39 12 -17 12
-51 27 -77 34 -35 10 -50 19 -57 38 -5 14 -27 36 -49 50 -21 13 -51 45 -65 70
-15 25 -69 87 -120 138 -89 89 -138 122 -183 122 -15 0 -20 7 -20 26 0 21 -9
29 -55 49 -30 14 -75 30 -99 36 -30 7 -47 18 -55 35 -6 13 -15 24 -21 24 -5 0
-23 19 -40 41 -30 42 -30 46 -15 119 19 90 21 134 10 208 -9 69 -42 107 -129
150 -70 35 -127 44 -189 30z m-969 -1756 c-44 -86 -106 -202 -138 -257 -32
-55 -64 -120 -71 -144 -8 -27 -19 -46 -31 -49 -10 -2 -19 -13 -19 -23 -1 -11
-2 -24 -3 -31 0 -7 -23 -19 -50 -26 l-48 -14 -33 32 c-40 39 -105 50 -145 26
-14 -9 -33 -19 -42 -22 -10 -3 -18 -10 -18 -14 0 -4 -22 -17 -50 -29 -58 -25
-82 -57 -84 -108 -1 -21 -9 -45 -18 -55 -16 -16 -28 -10 -231 125 -238 158
-275 195 -264 264 7 42 22 54 102 86 33 13 87 42 120 65 l59 40 25 -19 c29
-23 60 -19 99 11 13 11 40 22 61 26 20 4 62 20 94 35 65 32 158 59 227 66 47
5 206 77 253 115 24 20 31 21 60 10 67 -24 132 -13 177 30 56 54 46 13 -32
-140z m516 -390 c36 -123 127 -237 229 -287 92 -44 120 -70 148 -137 25 -58
26 -64 13 -117 -7 -31 -30 -94 -50 -141 -21 -47 -38 -103 -38 -124 -1 -38 -3
-40 -52 -56 -27 -10 -64 -25 -81 -33 -39 -20 -83 -73 -83 -98 0 -34 -37 -93
-69 -112 -28 -16 -34 -17 -59 -4 -48 25 -437 252 -451 264 -4 3 48 104 59 113
11 10 87 125 120 185 18 33 43 77 54 97 12 21 26 38 31 38 9 0 48 48 87 107 9
14 14 31 11 38 -2 7 5 33 16 57 11 25 22 56 25 69 2 13 7 35 10 49 3 14 8 42
11 63 6 42 33 90 46 81 5 -2 15 -26 23 -52z"/>
</g>
</svg>
